<svg xmlns="http://www.w3.org/2000/svg" x="0px" y="0px" viewBox="0 0 172 172">
<g fill="none" fill-rule="nonzero" stroke="none" stroke-width="1" stroke-linecap="butt" stroke-linejoin="miter" stroke-miterlimit="10" stroke-dasharray="" stroke-dashoffset="0" font-family="none" font-weight="none" font-size="none" text-anchor="none" style="mix-blend-mode: normal">
<path d="M0,172v-172h172v172z" fill="none"></path>
<g fill="#fff">
<path d="M103.91667,28.66667c-17.91667,0 -32.25,14.33333 -32.25,32.25c0,40.14453 -19.3444,52.32226 -50.16667,46.58333c0,0 17.66472,25.30729 53.52604,28.44271c-2.04362,2.35156 -2.91146,4.70313 -2.91146,4.70313l13.4375,5.375c0,0 -0.27994,0.11198 0.67188,-0.67187c0.95183,-0.78385 2.71549,-2.01562 6.94271,-2.01562c8.48242,0 17.24479,5.82292 17.24479,5.82292l8.51042,-11.64583c0,0 -5.9349,-4.25521 -14.55729,-6.71875c18.05664,-9.77018 30.17839,-32.36198 31.57813,-63.82813l14.55729,-9.63021l-16.57292,-7.83854c-4.61914,-12.14974 -16.18099,-20.82813 -30.01042,-20.82813zM114.66667,50.16667c4.3112,0 7.16667,2.85547 7.16667,7.16667c0,4.3112 -2.85547,7.16667 -7.16667,7.16667c-4.31119,0 -7.16667,-2.85547 -7.16667,-7.16667c0,-4.31119 2.85547,-7.16667 7.16667,-7.16667z">
</path>
</g>
</g>
</svg>